<svg width="112" height="46" viewBox="0 0 112 46" fill="none" xmlns="http://www.w3.org/2000/svg">
<path d="M34.1351 45.0001L35.5751 39.7351C35.9501 38.4301 36.1901 37.4401 36.3551 36.4351H36.3851C36.5201 37.4551 36.7301 38.4451 37.0451 39.7351L38.3201 45.0001H39.6851L42.5501 34.8901H41.2151L39.8801 39.9901C39.5651 41.2501 39.2801 42.3751 39.0701 43.4851H39.0401C38.8901 42.4201 38.6201 41.2201 38.3351 40.0201L37.1051 34.8901H35.7401L34.3901 39.9901C34.0451 41.2951 33.7301 42.4951 33.5651 43.5001H33.5351C33.3551 42.5251 33.0851 41.2651 32.7851 40.0051L31.5851 34.8901H30.2051L32.7701 45.0001H34.1351ZM51.2756 39.1801H47.3606V35.9851H51.5156V34.8901H46.0406V45.0001H51.7406V43.9051H47.3606V40.2601H51.2756V39.1801ZM55.6736 45.0001H61.3136V43.9051H56.9936V34.8901H55.6736V45.0001ZM64.9986 45.0001H70.6386V43.9051H66.3186V34.8901H64.9986V45.0001ZM75.5686 45.0001V40.6801C75.5686 39.0001 75.5536 37.7851 75.4786 36.5101L75.5236 36.4951C76.0186 37.5901 76.6936 38.7451 77.3986 39.8701L80.6086 45.0001H81.9286V34.8901H80.6986V39.1201C80.6986 40.6951 80.7286 41.9251 80.8486 43.2751L80.8036 43.2901C80.3386 42.2551 79.7386 41.1901 79.0036 40.0051L75.7786 34.8901H74.3386V45.0001H75.5686ZM91.6821 39.1801H87.7671V35.9851H91.9221V34.8901H86.4471V45.0001H92.1471V43.9051H87.7671V40.2601H91.6821V39.1801ZM95.5846 44.5051C96.1246 44.8651 97.1896 45.1651 98.1646 45.1651C100.55 45.1651 101.69 43.8001 101.69 42.2401C101.69 40.7551 100.835 39.9301 99.1246 39.2701C97.7296 38.7301 97.1146 38.2651 97.1146 37.3201C97.1146 36.6301 97.6396 35.8051 99.0196 35.8051C99.9346 35.8051 100.61 36.0901 100.925 36.2851L101.285 35.2201C100.85 34.9651 100.085 34.7251 99.0646 34.7251C97.0996 34.7251 95.7946 35.8951 95.7946 37.4701C95.7946 38.8801 96.8146 39.7501 98.4646 40.3501C99.8296 40.8601 100.37 41.4151 100.37 42.3451C100.37 43.3651 99.5896 44.0701 98.2546 44.0701C97.3546 44.0701 96.5146 43.7851 95.9296 43.4101L95.5846 44.5051ZM105.232 44.5051C105.772 44.8651 106.837 45.1651 107.812 45.1651C110.197 45.1651 111.337 43.8001 111.337 42.2401C111.337 40.7551 110.482 39.9301 108.772 39.2701C107.377 38.7301 106.762 38.2651 106.762 37.3201C106.762 36.6301 107.287 35.8051 108.667 35.8051C109.582 35.8051 110.257 36.0901 110.572 36.2851L110.932 35.2201C110.497 34.9651 109.732 34.7251 108.712 34.7251C106.747 34.7251 105.442 35.8951 105.442 37.4701C105.442 38.8801 106.462 39.7501 108.112 40.3501C109.477 40.8601 110.017 41.4151 110.017 42.3451C110.017 43.3651 109.237 44.0701 107.902 44.0701C107.002 44.0701 106.162 43.7851 105.577 43.4101L105.232 44.5051Z" fill="#444444"/>
<path d="M36.753 22.542H45.489V27.69H30.084V0.312012H36.753V22.542Z" fill="#444444"/>
<path fill-rule="evenodd" clip-rule="evenodd" d="M74.1659 6.903C75.1019 7.371 75.8169 8.06 76.3109 8.97H83.6819C82.9539 6.162 81.4589 3.965 79.1969 2.379C76.9609 0.793 74.2049 0 70.9289 0C68.2249 0 65.8199 0.598 63.7139 1.794C61.6079 2.964 59.9569 4.615 58.7609 6.747C57.5909 8.853 57.0059 11.258 57.0059 13.962C57.0059 16.666 57.5909 19.071 58.7609 21.177C59.9569 23.283 61.6079 24.934 63.7139 26.13C65.8459 27.3 68.2639 27.885 70.9679 27.885C73.2559 27.885 75.3099 27.443 77.1299 26.559C78.9499 25.675 80.4449 24.518 81.6149 23.088C82.8109 21.658 83.6559 20.111 84.1499 18.447V12.246H69.6419V17.16H78.1049C77.5849 18.72 76.7529 19.916 75.6089 20.748C74.4909 21.58 73.1129 21.996 71.4749 21.996C69.0829 21.996 67.1979 21.294 65.8199 19.89C64.4679 18.46 63.7919 16.484 63.7919 13.962C63.7919 11.596 64.4419 9.711 65.7419 8.307C67.0419 6.877 68.7709 6.162 70.9289 6.162C72.1769 6.162 73.2559 6.409 74.1659 6.903ZM104.667 27.69H111.336V0.312001H104.667V17.277L93.5129 0.312001H86.8439V27.69H93.5129V10.803L104.667 27.69Z" fill="#444444"/>
<path d="M47.752 10.8338V27.7015H54.421V8.68994L47.752 10.8338Z" fill="#F47521"/>
<path d="M54.304 2.26343L47.6348 4.40727V0.312012H54.304V2.26343Z" fill="#429FDD"/>
<path d="M11.7069 22.8541H18.837L20.475 27.6901H27.534L24.3175 18.8003L11.7069 22.8541Z" fill="#444444"/>
<path d="M0.439199 26.4762L8.2417 23.968L6.981 27.6901H0L0.439199 26.4762Z" fill="#444444"/>
<path d="M9.90659 0.312012L3.06641 19.2167L10.689 16.7663L13.7286 7.683L16.2034 14.9937L22.2387 13.0535L17.6286 0.312012H9.90659Z" fill="#444444"/>
<path d="M0 40L27.5 39V41L0 40Z" fill="#429FDD"/>
</svg>
